<svg xmlns="http://www.w3.org/2000/svg" viewBox="0 0 100 100">
  <defs>
    <linearGradient id="grad" x1="0%" y1="0%" x2="100%" y2="100%">
      <stop offset="0%" style="stop-color:#38BDF8"/>
      <stop offset="50%" style="stop-color:#3B82F6"/>
      <stop offset="100%" style="stop-color:#8B5CF6"/>
    </linearGradient>
  </defs>
  
  <!-- Outer circle (nest) -->
  <circle cx="50" cy="50" r="45" fill="none" stroke="url(#grad)" stroke-width="3"/>
  
  <!-- Nest swirl lines -->
  <path d="M20 45 Q50 25 80 45" fill="none" stroke="url(#grad)" stroke-width="2.5" stroke-linecap="round"/>
  <path d="M15 55 Q50 35 85 55" fill="none" stroke="url(#grad)" stroke-width="2.5" stroke-linecap="round"/>
  <path d="M18 65 Q50 45 82 65" fill="none" stroke="url(#grad)" stroke-width="2.5" stroke-linecap="round"/>
  <path d="M22 75 Q50 55 78 75" fill="none" stroke="url(#grad)" stroke-width="2.5" stroke-linecap="round"/>
  
  <!-- Center egg/leaf shape -->
  <ellipse cx="50" cy="55" rx="12" ry="15" fill="none" stroke="url(#grad)" stroke-width="2.5"/>
  <path d="M50 48 Q45 55 50 62 Q55 55 50 48" fill="url(#grad)"/>
  
  <!-- Shopping bag handles on top -->
  <path d="M35 15 L35 25 Q35 30 40 30" fill="none" stroke="url(#grad)" stroke-width="2.5" stroke-linecap="round"/>
  <path d="M50 8 L50 20" fill="none" stroke="url(#grad)" stroke-width="2.5" stroke-linecap="round"/>
  <path d="M65 15 L65 25 Q65 30 60 30" fill="none" stroke="url(#grad)" stroke-width="2.5" stroke-linecap="round"/>
</svg>
